# xmcd CD database file
#
# Track frame offsets:
#	150
#	15632
#	26407
#	36597
#	51722
#	64162
#	81297
#	94645
#	105205
#	115942
#	127565
#	139442
#	154562
#	168077
#	178800
#	189802
#	205620
#
# Disc length: 2916 seconds
#
# Revision: 0
# Processed by: cddbd v1.4PL0 Copyright (c) Steve Scherf et al.
# Submitted via: CDex 1.51
#
DISCID=d70b6211
DTITLE=Kenny Rogers - Country Store Collection
DYEAR=1900
DGENRE=Country
TTITLE0=For The Good Times
TTITLE1=She Even Woke Me Up To Say Goodbye
TTITLE2=Where Does Rosie Go
TTITLE3=Just Dropped In
TTITLE4=Reuben James
TTITLE5=Something's Burning
TTITLE6=It's Gonna Be Better
TTITLE7=Ticket To Nowhere
TTITLE8=We All Got To Help Each Other
TTITLE9=Me And Robby McGee
TTITLE10=Elvira
TTITLE11=Tell It All Brother
TTITLE12=Shine On Ruby Mountain
TTITLE13=Last Few Threads Of Love
TTITLE14=Always Leaving, Always Gone
TTITLE15=The Way It Used To Be
TTITLE16=Ruby, Don't Take Your Love To Town
EXTD=
EXTT0=
EXTT1=
EXTT2=
EXTT3=
EXTT4=
EXTT5=
EXTT6=
EXTT7=
EXTT8=
EXTT9=
EXTT10=
EXTT11=
EXTT12=
EXTT13=
EXTT14=
EXTT15=
EXTT16=
PLAYORDER=
